<?xml version="1.0" encoding="UTF-8"?>
<svg width="256" height="256" viewBox="0 0 256 256" xmlns="http://www.w3.org/2000/svg">
  <defs>
    <linearGradient id="bgGrad" x1="0%" y1="0%" x2="100%" y2="100%">
      <stop offset="0%" style="stop-color:#0A0E27"/>
      <stop offset="100%" style="stop-color:#1A1F3A"/>
    </linearGradient>
    <linearGradient id="goldGrad" x1="0%" y1="0%" x2="100%" y2="100%">
      <stop offset="0%" style="stop-color:#fcd34d"/>
      <stop offset="50%" style="stop-color:#f59e0b"/>
      <stop offset="100%" style="stop-color:#d97706"/>
    </linearGradient>
    <linearGradient id="brainGrad" x1="0%" y1="0%" x2="100%" y2="100%">
      <stop offset="0%" style="stop-color:#38bdf8"/>
      <stop offset="50%" style="stop-color:#0ea5e9"/>
      <stop offset="100%" style="stop-color:#0369a1"/>
    </linearGradient>
    <linearGradient id="memGrad" x1="0%" y1="0%" x2="100%" y2="100%">
      <stop offset="0%" style="stop-color:#7dd3fc"/>
      <stop offset="100%" style="stop-color:#38bdf8"/>
    </linearGradient>
    <filter id="glow" x="-50%" y="-50%" width="200%" height="200%">
      <feGaussianBlur stdDeviation="3" result="coloredBlur"/>
      <feMerge><feMergeNode in="coloredBlur"/><feMergeNode in="SourceGraphic"/></feMerge>
    </filter>
    <filter id="blueGlow" x="-50%" y="-50%" width="200%" height="200%">
      <feGaussianBlur stdDeviation="5" result="blur"/>
      <feFlood flood-color="#0ea5e9" flood-opacity="0.35"/>
      <feComposite in2="blur" operator="in"/>
      <feMerge><feMergeNode/><feMergeNode in="SourceGraphic"/></feMerge>
    </filter>
    <filter id="shadow">
      <feDropShadow dx="0" dy="2" stdDeviation="3" flood-opacity="0.4"/>
    </filter>
  </defs>
  <circle cx="128" cy="128" r="124" fill="url(#bgGrad)" stroke="url(#goldGrad)" stroke-width="3"/>
  <circle cx="128" cy="128" r="118" fill="none" stroke="#0ea5e9" stroke-width="0.5" opacity="0.3"/>
  <g filter="url(#blueGlow)">
    <path d="M128 46 Q96 46 84 68 Q72 88 78 104 Q70 114 76 128 Q80 142 96 148 L128 162 L160 148 Q176 142 180 128 Q186 114 178 104 Q184 88 172 68 Q160 46 128 46 Z"
          fill="#0c2d48" stroke="url(#brainGrad)" stroke-width="2.5"/>
    <path d="M128 46 Q122 76 128 102 Q134 128 128 162" fill="none" stroke="url(#brainGrad)" stroke-width="2" opacity="0.7"/>
  </g>
  <g filter="url(#glow)">
    <circle cx="108" cy="72" r="6" fill="url(#goldGrad)" stroke="#d97706" stroke-width="1"/>
    <circle cx="148" cy="72" r="6" fill="url(#goldGrad)" stroke="#d97706" stroke-width="1"/>
    <circle cx="96" cy="96" r="5" fill="url(#brainGrad)" stroke="#0ea5e9" stroke-width="1"/>
    <circle cx="160" cy="96" r="5" fill="url(#brainGrad)" stroke="#0ea5e9" stroke-width="1"/>
    <circle cx="104" cy="118" r="4.5" fill="url(#memGrad)" stroke="#38bdf8" stroke-width="1"/>
    <circle cx="152" cy="118" r="4.5" fill="url(#memGrad)" stroke="#38bdf8" stroke-width="1"/>
    <circle cx="110" cy="138" r="4" fill="#7dd3fc" opacity="0.8"/>
    <circle cx="146" cy="138" r="4" fill="#7dd3fc" opacity="0.8"/>
  </g>
  <g stroke="url(#brainGrad)" stroke-width="1.2" opacity="0.5">
    <line x1="108" y1="72" x2="96" y2="96"/><line x1="148" y1="72" x2="160" y2="96"/>
    <line x1="108" y1="72" x2="148" y2="72"/><line x1="96" y1="96" x2="104" y2="118"/>
    <line x1="160" y1="96" x2="152" y2="118"/><line x1="96" y1="96" x2="160" y2="96"/>
    <line x1="104" y1="118" x2="152" y2="118"/><line x1="104" y1="118" x2="110" y2="138"/>
    <line x1="152" y1="118" x2="146" y2="138"/><line x1="110" y1="138" x2="146" y2="138"/>
  </g>
  <g filter="url(#glow)">
    <circle cx="128" cy="102" r="10" fill="url(#goldGrad)" stroke="#d97706" stroke-width="1.5"/>
    <text x="128" y="107" text-anchor="middle" font-family="Arial, sans-serif" font-size="11" font-weight="bold" fill="#0A0E27">6</text>
  </g>
  <g opacity="0.7" filter="url(#glow)">
    <circle cx="72" cy="178" r="4" fill="url(#goldGrad)"/>
    <circle cx="92" cy="184" r="4" fill="url(#brainGrad)"/>
    <circle cx="112" cy="188" r="4" fill="url(#memGrad)"/>
    <circle cx="132" cy="188" r="4" fill="#7dd3fc"/>
    <circle cx="152" cy="184" r="4" fill="#a855f7"/>
    <circle cx="172" cy="178" r="4" fill="#6366f1"/>
  </g>
  <text x="128" y="214" text-anchor="middle" font-family="Arial, sans-serif" font-size="14" font-weight="bold"
        fill="url(#goldGrad)" letter-spacing="3" filter="url(#shadow)">CONTEXT</text>
  <text x="128" y="230" text-anchor="middle" font-family="Arial, sans-serif" font-size="7"
        fill="#B4C6E7" letter-spacing="1" opacity="0.7">6-LAGS HUKOMMELSE</text>
  <line x1="78" y1="238" x2="178" y2="238" stroke="url(#goldGrad)" stroke-width="1" opacity="0.4"/>
</svg>
