<?xml version="1.0" encoding="UTF-8"?>
<svg width="256" height="256" viewBox="0 0 256 256" xmlns="http://www.w3.org/2000/svg">
  <defs>
    <linearGradient id="bgGrad" x1="0%" y1="0%" x2="100%" y2="100%">
      <stop offset="0%" style="stop-color:#0A0E27"/>
      <stop offset="100%" style="stop-color:#1A1F3A"/>
    </linearGradient>
    <linearGradient id="goldGrad" x1="0%" y1="0%" x2="100%" y2="100%">
      <stop offset="0%" style="stop-color:#fcd34d"/>
      <stop offset="50%" style="stop-color:#f59e0b"/>
      <stop offset="100%" style="stop-color:#d97706"/>
    </linearGradient>
    <linearGradient id="redGrad" x1="0%" y1="0%" x2="100%" y2="100%">
      <stop offset="0%" style="stop-color:#ef4444"/>
      <stop offset="100%" style="stop-color:#dc2626"/>
    </linearGradient>
    <linearGradient id="bookGrad" x1="0%" y1="0%" x2="100%" y2="100%">
      <stop offset="0%" style="stop-color:#fde68a"/>
      <stop offset="40%" style="stop-color:#fbbf24"/>
      <stop offset="100%" style="stop-color:#d97706"/>
    </linearGradient>
    <filter id="glow" x="-50%" y="-50%" width="200%" height="200%">
      <feGaussianBlur stdDeviation="3" result="coloredBlur"/>
      <feMerge><feMergeNode in="coloredBlur"/><feMergeNode in="SourceGraphic"/></feMerge>
    </filter>
    <filter id="shadow">
      <feDropShadow dx="0" dy="2" stdDeviation="3" flood-opacity="0.4"/>
    </filter>
  </defs>
  <circle cx="128" cy="128" r="124" fill="url(#bgGrad)" stroke="url(#goldGrad)" stroke-width="3"/>
  <circle cx="128" cy="128" r="118" fill="none" stroke="#ef4444" stroke-width="0.5" opacity="0.3"/>
  <g filter="url(#glow)">
    <path d="M128 60 L128 170 Q100 165 60 168 L60 58 Q100 55 128 60 Z"
          fill="url(#bookGrad)" stroke="url(#goldGrad)" stroke-width="1.5" opacity="0.95"/>
    <path d="M128 60 L128 170 Q156 165 196 168 L196 58 Q156 55 128 60 Z"
          fill="url(#bookGrad)" stroke="url(#goldGrad)" stroke-width="1.5" opacity="0.9"/>
    <line x1="128" y1="60" x2="128" y2="170" stroke="url(#goldGrad)" stroke-width="2"/>
  </g>
  <g stroke="#0A0E27" stroke-width="1.5" stroke-linecap="round" opacity="0.5">
    <line x1="74" y1="80" x2="118" y2="80"/>
    <line x1="74" y1="92" x2="112" y2="92"/>
    <line x1="74" y1="104" x2="116" y2="104"/>
    <line x1="74" y1="116" x2="108" y2="116"/>
    <line x1="74" y1="128" x2="114" y2="128"/>
    <line x1="74" y1="140" x2="106" y2="140"/>
    <line x1="74" y1="152" x2="110" y2="152"/>
  </g>
  <g filter="url(#glow)">
    <rect x="146" y="84" width="32" height="12" rx="2" fill="url(#redGrad)"/>
    <rect x="156" y="74" width="12" height="32" rx="2" fill="url(#redGrad)"/>
    <path d="M152 128 Q152 118 162 118 Q172 118 172 128 Q172 140 162 148 Q152 140 152 128 Z" fill="url(#redGrad)" opacity="0.8"/>
  </g>
  <g filter="url(#glow)" opacity="0.4">
    <path d="M128 38 L160 48 Q172 82 128 108 Q84 82 96 48 Z" fill="none" stroke="url(#goldGrad)" stroke-width="1.5"/>
  </g>
  <text x="128" y="202" text-anchor="middle" font-family="Arial, sans-serif" font-size="14" font-weight="bold"
        fill="url(#goldGrad)" letter-spacing="3" filter="url(#shadow)">MANUAL</text>
  <text x="128" y="218" text-anchor="middle" font-family="Arial, sans-serif" font-size="7"
        fill="#B4C6E7" letter-spacing="1" opacity="0.7">NØDPROCEDURER</text>
  <line x1="78" y1="226" x2="178" y2="226" stroke="url(#goldGrad)" stroke-width="1" opacity="0.4"/>
</svg>
