<?xml version="1.0" encoding="UTF-8"?>
<svg width="256" height="256" viewBox="0 0 256 256" xmlns="http://www.w3.org/2000/svg">
  <defs>
    <linearGradient id="bgGrad" x1="0%" y1="0%" x2="100%" y2="100%">
      <stop offset="0%" style="stop-color:#0A0E27"/>
      <stop offset="100%" style="stop-color:#1A1F3A"/>
    </linearGradient>
    <linearGradient id="goldGrad" x1="0%" y1="0%" x2="100%" y2="100%">
      <stop offset="0%" style="stop-color:#fcd34d"/>
      <stop offset="50%" style="stop-color:#f59e0b"/>
      <stop offset="100%" style="stop-color:#d97706"/>
    </linearGradient>
    <linearGradient id="folderGrad" x1="0%" y1="0%" x2="100%" y2="100%">
      <stop offset="0%" style="stop-color:#fde68a"/>
      <stop offset="40%" style="stop-color:#fbbf24"/>
      <stop offset="100%" style="stop-color:#b45309"/>
    </linearGradient>
    <linearGradient id="tabGrad" x1="0%" y1="0%" x2="100%" y2="100%">
      <stop offset="0%" style="stop-color:#fcd34d"/>
      <stop offset="100%" style="stop-color:#f59e0b"/>
    </linearGradient>
    <filter id="glow" x="-50%" y="-50%" width="200%" height="200%">
      <feGaussianBlur stdDeviation="3" result="coloredBlur"/>
      <feMerge><feMergeNode in="coloredBlur"/><feMergeNode in="SourceGraphic"/></feMerge>
    </filter>
    <filter id="shadow">
      <feDropShadow dx="0" dy="2" stdDeviation="3" flood-opacity="0.4"/>
    </filter>
  </defs>
  <circle cx="128" cy="128" r="124" fill="url(#bgGrad)" stroke="url(#goldGrad)" stroke-width="3"/>
  <circle cx="128" cy="128" r="118" fill="none" stroke="#f59e0b" stroke-width="0.5" opacity="0.3"/>
  <g opacity="0.15" stroke="url(#goldGrad)" stroke-width="0.8" fill="none">
    <polygon points="128,40 158,55 158,85 128,100 98,85 98,55"/>
    <polygon points="168,70 198,85 198,115 168,130 138,115 138,85"/>
    <polygon points="88,70 118,85 118,115 88,130 58,115 58,85"/>
    <polygon points="128,100 158,115 158,145 128,160 98,145 98,115"/>
  </g>
  <g filter="url(#glow)">
    <rect x="52" y="80" width="152" height="92" rx="6" fill="url(#folderGrad)" stroke="url(#goldGrad)" stroke-width="2"/>
    <path d="M52 84 L52 74 Q52 68 58 68 L104 68 L112 60 Q116 56 122 56 L196 56 Q202 56 202 62 L202 74 L204 80"
          fill="url(#tabGrad)" stroke="url(#goldGrad)" stroke-width="2"/>
  </g>
  <g filter="url(#glow)">
    <circle cx="82" cy="108" r="8" fill="#ef4444" stroke="url(#goldGrad)" stroke-width="1"/>
    <circle cx="110" cy="108" r="8" fill="#3b82f6" stroke="url(#goldGrad)" stroke-width="1"/>
    <circle cx="138" cy="108" r="8" fill="#10b981" stroke="url(#goldGrad)" stroke-width="1"/>
    <circle cx="166" cy="108" r="8" fill="#a855f7" stroke="url(#goldGrad)" stroke-width="1"/>
    <circle cx="96" cy="136" r="8" fill="#f59e0b" stroke="url(#goldGrad)" stroke-width="1"/>
    <circle cx="124" cy="136" r="8" fill="#06b6d4" stroke="url(#goldGrad)" stroke-width="1"/>
    <circle cx="152" cy="136" r="8" fill="#ec4899" stroke="url(#goldGrad)" stroke-width="1"/>
  </g>
  <g stroke="url(#goldGrad)" stroke-width="0.8" opacity="0.4">
    <line x1="82" y1="108" x2="110" y2="108"/>
    <line x1="110" y1="108" x2="138" y2="108"/>
    <line x1="138" y1="108" x2="166" y2="108"/>
    <line x1="82" y1="108" x2="96" y2="136"/>
    <line x1="110" y1="108" x2="124" y2="136"/>
    <line x1="138" y1="108" x2="152" y2="136"/>
  </g>
  <g filter="url(#glow)">
    <circle cx="196" cy="68" r="14" fill="url(#bgGrad)" stroke="url(#goldGrad)" stroke-width="2"/>
    <text x="196" y="73" text-anchor="middle" font-family="Arial, sans-serif" font-size="13" font-weight="bold" fill="url(#goldGrad)">7</text>
  </g>
  <text x="128" y="202" text-anchor="middle" font-family="Arial, sans-serif" font-size="14" font-weight="bold"
        fill="url(#goldGrad)" letter-spacing="3" filter="url(#shadow)">PROJEKTS</text>
  <text x="128" y="218" text-anchor="middle" font-family="Arial, sans-serif" font-size="7"
        fill="#B4C6E7" letter-spacing="1" opacity="0.7">CIRKELLINE ECOSYSTEM</text>
  <line x1="78" y1="226" x2="178" y2="226" stroke="url(#goldGrad)" stroke-width="1" opacity="0.4"/>
</svg>
