<?xml version="1.0" encoding="UTF-8"?>
<svg width="256" height="256" viewBox="0 0 256 256" xmlns="http://www.w3.org/2000/svg">
  <defs>
    <linearGradient id="bgGrad" x1="0%" y1="0%" x2="100%" y2="100%">
      <stop offset="0%" style="stop-color:#0A0E27"/>
      <stop offset="100%" style="stop-color:#1A1F3A"/>
    </linearGradient>
    <linearGradient id="goldGrad" x1="0%" y1="0%" x2="100%" y2="100%">
      <stop offset="0%" style="stop-color:#fcd34d"/>
      <stop offset="50%" style="stop-color:#f59e0b"/>
      <stop offset="100%" style="stop-color:#d97706"/>
    </linearGradient>
    <linearGradient id="greenGrad" x1="0%" y1="0%" x2="100%" y2="100%">
      <stop offset="0%" style="stop-color:#10b981"/>
      <stop offset="100%" style="stop-color:#059669"/>
    </linearGradient>
    <linearGradient id="boardGrad" x1="0%" y1="0%" x2="100%" y2="100%">
      <stop offset="0%" style="stop-color:#fde68a"/>
      <stop offset="40%" style="stop-color:#fbbf24"/>
      <stop offset="100%" style="stop-color:#d97706"/>
    </linearGradient>
    <filter id="glow" x="-50%" y="-50%" width="200%" height="200%">
      <feGaussianBlur stdDeviation="3" result="coloredBlur"/>
      <feMerge><feMergeNode in="coloredBlur"/><feMergeNode in="SourceGraphic"/></feMerge>
    </filter>
    <filter id="shadow">
      <feDropShadow dx="0" dy="2" stdDeviation="3" flood-opacity="0.4"/>
    </filter>
  </defs>
  <circle cx="128" cy="128" r="124" fill="url(#bgGrad)" stroke="url(#goldGrad)" stroke-width="3"/>
  <circle cx="128" cy="128" r="118" fill="none" stroke="#10b981" stroke-width="0.5" opacity="0.3"/>
  <g filter="url(#glow)">
    <rect x="68" y="52" width="120" height="156" rx="8" fill="url(#boardGrad)" stroke="url(#goldGrad)" stroke-width="2"/>
    <rect x="104" y="40" width="48" height="24" rx="6" fill="url(#goldGrad)" stroke="#d97706" stroke-width="1.5"/>
    <rect x="112" y="48" width="32" height="14" rx="4" fill="url(#bgGrad)"/>
  </g>
  <g filter="url(#glow)">
    <rect x="84" y="78" width="18" height="18" rx="4" fill="none" stroke="url(#greenGrad)" stroke-width="2"/>
    <path d="M88 88 L91 92 L99 82" fill="none" stroke="url(#greenGrad)" stroke-width="2.5" stroke-linecap="round" stroke-linejoin="round"/>
    <line x1="112" y1="88" x2="172" y2="88" stroke="#0A0E27" stroke-width="2" stroke-linecap="round" opacity="0.5"/>
    <rect x="84" y="106" width="18" height="18" rx="4" fill="none" stroke="url(#greenGrad)" stroke-width="2"/>
    <path d="M88 116 L91 120 L99 110" fill="none" stroke="url(#greenGrad)" stroke-width="2.5" stroke-linecap="round" stroke-linejoin="round"/>
    <line x1="112" y1="116" x2="164" y2="116" stroke="#0A0E27" stroke-width="2" stroke-linecap="round" opacity="0.5"/>
    <rect x="84" y="134" width="18" height="18" rx="4" fill="none" stroke="url(#goldGrad)" stroke-width="2"/>
    <circle cx="93" cy="143" r="4" fill="url(#goldGrad)"/>
    <line x1="112" y1="143" x2="168" y2="143" stroke="#0A0E27" stroke-width="2" stroke-linecap="round" opacity="0.5"/>
    <rect x="84" y="162" width="18" height="18" rx="4" fill="none" stroke="#B4C6E7" stroke-width="1.5" opacity="0.5"/>
    <line x1="112" y1="171" x2="156" y2="171" stroke="#0A0E27" stroke-width="2" stroke-linecap="round" opacity="0.3"/>
  </g>
  <text x="128" y="222" text-anchor="middle" font-family="Arial, sans-serif" font-size="14" font-weight="bold"
        fill="url(#goldGrad)" letter-spacing="3" filter="url(#shadow)">TODO</text>
  <line x1="78" y1="232" x2="178" y2="232" stroke="url(#goldGrad)" stroke-width="1" opacity="0.4"/>
</svg>
